<svg width="48" height="48" viewBox="0 0 48 48" fill="none" xmlns="http://www.w3.org/2000/svg">
<mask id="mask0_20_686" style="mask-type:alpha" maskUnits="userSpaceOnUse" x="0" y="0" width="48" height="48">
<rect width="48" height="48" fill="#D9D9D9"/>
</mask>
<g mask="url(#mask0_20_686)">
<path d="M25.5058 37.8331C29.3421 37.8331 32.5975 36.4869 35.2718 33.7943C37.9466 31.1015 39.2932 27.8347 39.3116 23.9939V10.1825H25.5002C21.6594 10.201 18.3926 11.5476 15.6998 14.2223C13.0073 16.8967 11.661 20.152 11.661 23.9883C11.661 27.8328 13.0059 31.1015 15.6957 33.7943C18.3858 36.4869 21.6559 37.8331 25.5058 37.8331ZM23.1288 32.7134L32.3715 24.4381C32.668 24.1725 32.7544 23.8549 32.6308 23.4856C32.5069 23.1165 32.2387 22.8978 31.8262 22.8293L24.5856 22.134L28.9505 16.1695C29.0542 16.0247 29.1009 15.8715 29.0907 15.7099C29.0807 15.5484 29.016 15.3943 28.8966 15.2478C28.7456 15.0985 28.5725 15.0261 28.3774 15.0306C28.1826 15.0347 28.0068 15.1066 27.85 15.2462L18.6715 23.5071C18.3754 23.7724 18.2858 24.0929 18.4029 24.4684C18.5203 24.8443 18.7853 25.0665 19.1978 25.135L26.4384 25.8169L22.0617 31.7947C21.958 31.9395 21.913 32.0927 21.9266 32.2543C21.9403 32.4159 22.0172 32.57 22.1572 32.7165C22.2883 32.8541 22.4438 32.9229 22.6235 32.9229C22.8032 32.9229 22.9716 32.8531 23.1288 32.7134ZM25.5058 40.414C23.4603 40.414 21.5336 40.0683 19.7257 39.3767C17.9175 38.6856 16.2866 37.7229 14.833 36.4888L11.2897 40.032C11.1497 40.1706 11.0056 40.2689 10.8573 40.3268C10.7088 40.3849 10.546 40.414 10.369 40.414C10.0119 40.414 9.70793 40.2879 9.457 40.0356C9.20572 39.7836 9.08008 39.4784 9.08008 39.12C9.08008 38.9423 9.10918 38.78 9.16738 38.6332C9.22523 38.486 9.32348 38.343 9.46213 38.2044L13.0054 34.6612C11.7712 33.2076 10.8086 31.5767 10.1174 29.7684C9.42584 27.9605 9.08008 26.0338 9.08008 23.9883C9.08008 19.4245 10.6762 15.5525 13.8686 12.3721C17.0606 9.19174 20.9388 7.60156 25.5033 7.60156H41.8926V23.9909C41.8926 28.5553 40.3024 32.4335 37.122 35.6255C33.9417 38.8179 30.0696 40.414 25.5058 40.414Z" fill="#222222"/>
</g>
</svg>
