<svg width="51" height="51" viewBox="0 0 51 51" fill="none" xmlns="http://www.w3.org/2000/svg">
<mask id="mask0_20_646" style="mask-type:alpha" maskUnits="userSpaceOnUse" x="0" y="0" width="51" height="51">
<rect width="51" height="51" fill="#D9D9D9"/>
</mask>
<g mask="url(#mask0_20_646)">
<path d="M11.7627 41.4945V38.8155H14.9513L19.1963 24.6824C19.4013 23.9606 19.7956 23.3818 20.379 22.9458C20.9629 22.5098 21.6268 22.2917 22.3709 22.2917H29.0082C29.7523 22.2917 30.4162 22.5098 31.0001 22.9458C31.5836 23.3818 31.9778 23.9606 32.1828 24.6824L36.4279 38.8155H39.6164V41.4945H11.7627ZM17.8019 38.8155H33.5772L29.6014 25.4425C29.5602 25.2918 29.4815 25.1756 29.3653 25.0939C29.2491 25.0118 29.1158 24.9707 28.9655 24.9707H22.4136C22.2633 24.9707 22.13 25.0118 22.0138 25.0939C21.8976 25.1756 21.8189 25.2918 21.7777 25.4425L17.8019 38.8155ZM24.3501 16.3331V7.25781H27.029V16.3331H24.3501ZM36.4236 21.3627L34.5052 19.4438L40.9543 13.0475L42.8199 14.9131L36.4236 21.3627ZM39.5343 31.5173V28.8389H48.6096V31.5173H39.5343ZM14.9555 21.3627L8.55924 14.9131L10.4248 13.0475L16.8739 19.4438L14.9555 21.3627ZM2.76953 31.5173V28.8389H11.8448V31.5173H2.76953Z" fill="#222222"/>
</g>
</svg>
