<svg width="51" height="51" viewBox="0 0 51 51" fill="none" xmlns="http://www.w3.org/2000/svg">
<mask id="mask0_26_561" style="mask-type:alpha" maskUnits="userSpaceOnUse" x="0" y="0" width="51" height="51">
<rect width="51" height="51" fill="#D9D9D9"/>
</mask>
<g mask="url(#mask0_26_561)">
<path d="M12.6007 48.3438C11.024 48.3438 9.68061 47.7897 8.57066 46.6815C7.46105 45.5733 6.90625 44.2308 6.90625 42.6541C6.90625 41.077 7.45981 39.7357 8.56694 38.6304C9.67371 37.525 11.0178 36.9723 12.5991 36.9723C13.0585 36.9723 13.4913 37.023 13.8975 37.1243C14.3037 37.2256 14.7031 37.3715 15.0955 37.562L20.0419 31.4197C19.3173 30.5927 18.7969 29.6666 18.4806 28.6413C18.1647 27.616 18.0944 26.5611 18.2697 25.4766L11.1127 23.0903C10.6076 23.9484 9.93331 24.6268 9.08969 25.1255C8.24571 25.6238 7.28645 25.8729 6.21191 25.8729C4.64189 25.8729 3.3026 25.3201 2.19406 24.2144C1.08552 23.1087 0.53125 21.766 0.53125 20.1864C0.53125 18.6069 1.08534 17.2646 2.19353 16.1596C3.30172 15.0546 4.64419 14.5021 6.22094 14.5021C7.79804 14.5021 9.13927 15.0547 10.2446 16.1601C11.35 17.2658 11.9027 18.6083 11.9027 20.1875C11.9027 20.2746 11.8993 20.3605 11.8926 20.4452C11.8858 20.5294 11.8825 20.5994 11.8825 20.655L19.0543 23.1354C19.6111 22.1182 20.3292 21.2909 21.2086 20.6534C22.088 20.0159 23.0961 19.5868 24.233 19.3662V11.7513C22.8655 11.43 21.7873 10.7374 20.9982 9.67353C20.2091 8.60962 19.8146 7.45468 19.8146 6.20872C19.8146 4.6433 20.3674 3.30562 21.4731 2.19566C22.5788 1.08605 23.9215 0.53125 25.5011 0.53125C27.0806 0.53125 28.4229 1.08552 29.5279 2.19406C30.6329 3.3026 31.1854 4.64366 31.1854 6.21722C31.1854 7.45751 30.7856 8.60962 29.9859 9.67353C29.1858 10.7374 28.1129 11.43 26.767 11.7513V19.3662C27.9039 19.5868 28.9145 20.0159 29.7989 20.6534C30.6836 21.2909 31.411 22.1182 31.9813 23.1354L39.1175 20.655C39.1041 20.5973 39.0973 20.5261 39.0973 20.4414V20.1875C39.0973 18.6083 39.6493 17.2658 40.7533 16.1601C41.8568 15.0547 43.1972 14.5021 44.7743 14.5021C46.351 14.5021 47.6944 15.0549 48.8043 16.1606C49.9139 17.2663 50.4688 18.609 50.4688 20.1886C50.4688 21.7681 49.9145 23.1104 48.8059 24.2154C47.6974 25.3204 46.3581 25.8729 44.7881 25.8729C43.7182 25.8729 42.7546 25.6215 41.8976 25.1186C41.0405 24.6153 40.3704 23.9392 39.8873 23.0903L32.7303 25.4766C32.9148 26.5611 32.8504 27.6163 32.5369 28.6423C32.2235 29.6687 31.6972 30.5878 30.9581 31.3995L35.9045 37.5445C36.2849 37.3582 36.6812 37.2164 37.0935 37.119C37.5057 37.0212 37.9364 36.9723 38.3855 36.9723C39.9888 36.9723 41.341 37.5243 42.4421 38.6283C43.5432 39.7318 44.0938 41.0722 44.0938 42.6493C44.0938 44.226 43.5397 45.5694 42.4315 46.6793C41.3233 47.7889 39.9808 48.3438 38.4041 48.3438C36.827 48.3438 35.4857 47.7905 34.3804 46.6841C33.275 45.5781 32.7223 44.2347 32.7223 42.6541C32.7223 41.9776 32.8213 41.3541 33.0193 40.7835C33.2169 40.213 33.5235 39.6649 33.9389 39.1393L28.9924 32.9566C27.9317 33.5704 26.7621 33.8773 25.4835 33.8773C24.205 33.8773 23.0354 33.5704 21.9746 32.9566L17.0611 39.1749C17.4634 39.6927 17.7668 40.2328 17.9711 40.7952C18.1755 41.358 18.2777 41.9776 18.2777 42.6541C18.2777 44.2347 17.7257 45.5781 16.6217 46.6841C15.5182 47.7905 14.1778 48.3438 12.6007 48.3438ZM6.22041 23.2034C7.06191 23.2034 7.77431 22.9105 8.35763 22.3247C8.94129 21.7386 9.23312 21.0249 9.23312 20.1838C9.23312 19.3426 8.94005 18.6302 8.35391 18.0466C7.76812 17.4633 7.05465 17.1716 6.2135 17.1716C5.372 17.1716 4.65959 17.4645 4.07628 18.0503C3.49297 18.6364 3.20131 19.3501 3.20131 20.1912C3.20131 21.0324 3.49421 21.7448 4.08 22.3284C4.66579 22.9117 5.37926 23.2034 6.22041 23.2034ZM12.5954 45.6737C13.4369 45.6737 14.1493 45.3808 14.7326 44.795C15.3163 44.2092 15.6081 43.4957 15.6081 42.6546C15.6081 41.8131 15.3151 41.1007 14.7289 40.5174C14.1431 39.9337 13.4296 39.6419 12.5885 39.6419C11.747 39.6419 11.0346 39.9349 10.4513 40.5211C9.86797 41.1069 9.57631 41.8204 9.57631 42.6615C9.57631 43.503 9.86921 44.2154 10.455 44.7987C11.0408 45.382 11.7543 45.6737 12.5954 45.6737ZM25.5037 9.23312C26.3449 9.23312 27.0573 8.94005 27.6409 8.35391C28.2243 7.76812 28.5159 7.05465 28.5159 6.2135C28.5159 5.372 28.223 4.65959 27.6372 4.07628C27.0511 3.49297 26.3374 3.20131 25.4963 3.20131C24.6551 3.20131 23.9427 3.49421 23.3591 4.08C22.7758 4.66579 22.4841 5.37926 22.4841 6.22041C22.4841 7.06191 22.777 7.77431 23.3628 8.35763C23.9489 8.94129 24.6626 9.23312 25.5037 9.23312ZM25.5112 31.2078C26.8014 31.2078 27.8963 30.7542 28.7959 29.8472C29.6955 28.9405 30.1453 27.8419 30.1453 26.5513C30.1453 25.2611 29.694 24.1662 28.7916 23.2666C27.8896 22.367 26.7924 21.9173 25.5 21.9173C24.2169 21.9173 23.1219 22.3685 22.2153 23.2709C21.3083 24.1729 20.8547 25.2701 20.8547 26.5625C20.8547 27.8456 21.3083 28.9405 22.2153 29.8472C23.1219 30.7542 24.2206 31.2078 25.5112 31.2078ZM38.4115 45.6737C39.253 45.6737 39.9654 45.3808 40.5487 44.795C41.132 44.2092 41.4237 43.4957 41.4237 42.6546C41.4237 41.8131 41.1308 41.1007 40.545 40.5174C39.9592 39.9337 39.2457 39.6419 38.4046 39.6419C37.5631 39.6419 36.8507 39.9349 36.2674 40.5211C35.6837 41.1069 35.3919 41.8204 35.3919 42.6615C35.3919 43.503 35.6849 44.2154 36.2711 44.7987C36.8569 45.382 37.5704 45.6737 38.4115 45.6737ZM44.7865 23.2034C45.628 23.2034 46.3404 22.9105 46.9237 22.3247C47.507 21.7386 47.7987 21.0249 47.7987 20.1838C47.7987 19.3426 47.5058 18.6302 46.92 18.0466C46.3342 17.4633 45.6207 17.1716 44.7796 17.1716C43.9381 17.1716 43.2257 17.4645 42.6424 18.0503C42.0587 18.6364 41.7669 19.3501 41.7669 20.1912C41.7669 21.0324 42.0599 21.7448 42.6461 22.3284C43.2319 22.9117 43.9454 23.2034 44.7865 23.2034Z" fill="#1C1B1F"/>
</g>
</svg>
